<svg xmlns="http://www.w3.org/2000/svg" width="20" height="17" viewBox="0 0 20 17">
    <path fill="#F5333F" fill-rule="evenodd" d="M9.393 5.247c.067-.668.07-1.198.18-1.708.62-2.917 3.897-4.26 6.49-2.67.168.102.3.28.478.338.267.088.58.184.837.128.57-.125 1.12-.343 1.656-.516.313.248.143.465.022.652-.21.324-.45.63-.738 1.025h1.35c-.063.485-.453.728-.74 1.031-.268.282-.565.538-.83.787-.127 1.03-.167 2.044-.39 3.02-1.094 4.795-4.076 7.947-9.018 9.165-2.77.683-5.53.385-8.119-.899-.206-.102-.487-.152-.473-.572 1.145-.095 2.328-.133 3.41-.61.405-.18.807-.368 1.198-.576.21-.111.392-.271.71-.498-1.613-.551-3.054-1.145-3.529-2.885l.922-.193c-.007-.078.017-.195-.027-.227-.316-.23-.67-.417-.968-.668C.88 8.584.304 7.622.31 6.28l1.17.111c.023-.083.093-.199.06-.244-.2-.274-.456-.513-.63-.8-.81-1.33-.925-2.695-.172-4.137.535.06.734.49 1.024.771 1.506 1.463 3.259 2.5 5.343 3.002.724.174 1.45.269 2.29.265"/>
</svg>
