<svg xmlns="http://www.w3.org/2000/svg" xmlns:xlink="http://www.w3.org/1999/xlink" width="189" height="65" viewBox="0 0 189 65">
    <defs>
        <path id="a" d="M0 .731h188.977V64H0z"/>
    </defs>
    <g fill="none" fill-rule="evenodd">
        <g transform="translate(0 .269)">
            <mask id="b" fill="#fff">
                <use xlink:href="#a"/>
            </mask>
            <path fill="#EC1D24" d="M94.239.731C32.657.731 0 44.418 0 44.418l13.389 9.05s1.623-4.052 5.322-9.856c.021 1.456.229 2.473.229 2.473C21.302 64.438 39.136 64 39.136 64h110.59s18.076.497 20.432-17.853c0 0 .181-.95.203-2.394 3.643 5.664 5.251 9.59 5.251 9.59l13.365-8.943S155.827.731 94.239.731" mask="url(#b)"/>
        </g>
        <path fill="#FEFEFE" d="M167.417 46.142s-2.4 14.048-17.928 14.048H39.08c-15.51 0-17.701-14.184-17.701-14.184-.604-3.765.13-6.336 1.295-8.118C33.847 23.177 55.97 3.426 94.194 3.426c38.565 0 60.859 20.043 72.023 34.764 1.29 1.629 1.78 4.306 1.2 7.952"/>
        <path fill="#EC1D24" d="M153.167 46.628s-1.186.539-1.7.007c-.505-.531-.063-1.514-.063-1.514l4.99-10.488h-5.077l-.783 1.393c-2.96-2.603-8.553-1.256-12.016 2.36-1.996 2.082-3.137 4.559-3.298 6.709-.563.378-1.505.949-2.724 1.426 0 0-1.193.553-1.704.025-.522-.534-.062-1.522-.062-1.522l8.862-18.23h-5.083l-4.66 9.137c-2.958-2.604-8.54-1.249-12.023 2.364a14.08 14.08 0 0 0-1.772 2.314l.013-.017c-.04.069-.081.125-.1.199-.113.181-.23.366-.332.554-2.747 4.797-6.195 5.586-6.195 5.586-7.276 2.176-8.093-1.387-8.093-1.387 8.135-3.007 11.21-6.574 10.917-9.306-.282-2.727-4.027-2.864-4.027-2.864-6.165-.377-11.486 3.929-12.767 8.146-.407 1.289-.517 2.598-.27 3.81-2.471 1.305-3.902 1.509-3.902 1.509-2.056.65-2.285-.318-2.551-.917-.244-.592-1.155-5.845-1.155-5.845l8.638-5.644h-5.277l-6.498 4.015c-1.475.612-.906-.923-.906-.923l5.296-10.743h-5.09l-8.597 17.435c-.986.594-2.987 1.735-4.416 2.304 0 0-1.19.553-1.698.025-.51-.534-.075-1.522-.075-1.522l5.01-10.496h-5.086l-.778 1.403c-2.975-2.604-8.56-1.249-12.034 2.364-3.461 3.616-4.344 8.389-1.967 10.661 1.893 1.818 5.297 1.475 8.355-.581 0 0 .778-.669 1.205.112.435.809 2.189 2.632 6.216 1.045a28.612 28.612 0 0 0 3.46-1.646l-1.062 2.138h5.089l2.54-5.15 2.23-1.415s.662-.537.937.606c0 0 1.112 4.334 1.529 4.901.427.566 1.275 1.843 4.855.815a62.653 62.653 0 0 0 6.635-2.33c1.208 1.646 3.5 2.767 7.285 2.767 5.565 0 9.5-2.661 11.164-4.049.133 1.102.552 2.07 1.302 2.787 1.89 1.818 5.309 1.475 8.376-.581 0 0 .765-.669 1.178.112.455.809 2.199 2.632 6.23 1.045 1.847-.733 3.096-1.436 3.918-1.975.197.56.538 1.067.97 1.491 1.898 1.819 5.313 1.478 8.379-.578 0 0 .758-.666 1.194.105.43.817 2.195 2.649 6.22 1.046 4.033-1.594 5.195-3.028 5.195-3.028l-1.02-1.798c-.142.079-1.383 1.07-3.327 1.833m-88.308-3.015c-1.746 2.469-4.237 3.726-5.565 2.79-1.302-.93-.945-3.696.823-6.166 1.746-2.476 4.222-3.725 5.55-2.791 1.307.94.939 3.697-.808 6.167m36.075-1.799s1.127-3.844 4.847-5.379c0 0 1.048-.357 1.61.099 0 0 .798.769-.15 2.186-.844 1.26-2.861 3.531-5.081 4.299 0 0-1.991.862-1.226-1.205m25.682 1.799c-1.752 2.469-4.256 3.726-5.553 2.79-1.33-.93-.977-3.696.798-6.166 1.754-2.476 4.24-3.725 5.553-2.791 1.303.94.958 3.697-.798 6.167m20.67.092c-1.752 2.481-4.24 3.729-5.56 2.787-1.305-.929-.95-3.689.816-6.158 1.756-2.479 4.236-3.729 5.559-2.801 1.308.933.94 3.696-.814 6.172M61.988 30.834l1.843-3.948H40.218l-1.845 3.948h9.144l-9.476 19.258h6.114l9.477-19.258z"/>
    </g>
</svg>
