<svg xmlns="http://www.w3.org/2000/svg" xmlns:xlink="http://www.w3.org/1999/xlink" width="179" height="54" viewBox="0 0 179 54">
    <defs>
        <path id="a" d="M.175.072H32.15v34.08H.175z"/>
        <path id="c" d="M0 .096h6.524v6.707H0z"/>
        <path id="e" d="M.111.041H2.29V3.36H.11z"/>
        <path id="g" d="M.076.041h2.179V3.36H.076z"/>
        <path id="i" d="M0 53.76h178.95V.072H0z"/>
    </defs>
    <g fill="none" fill-rule="evenodd">
        <path fill="#F5333F" d="M.134.24v34.087h6.458v-8.973l7.301 8.973h8.002L10.992 21.67l9.078-9.992h-8.283l-5.195 6.208V.24z"/>
        <g transform="translate(0 .168)">
            <path fill="#F5333F" d="M28.446 34.16h-6.504V11.508h6.504v3.298c1.17-2.28 3.744-3.783 6.318-3.783 4.914 0 8.003 3.152 8.003 9.603V34.16h-6.505V22.083c0-3.008-1.59-4.512-3.79-4.512-2.294 0-4.026 1.165-4.026 4.608v11.98zM60.227 22.761c0-3.055-2.246-5.14-4.96-5.14-2.668 0-4.914 2.085-4.914 5.14 0 3.153 2.246 5.19 4.914 5.19 2.714 0 4.96-2.037 4.96-5.19m-16.286 0c0-7.13 5.148-11.737 11.326-11.737 6.177 0 11.372 4.608 11.372 11.737 0 7.13-5.195 11.787-11.372 11.787-6.178 0-11.326-4.657-11.326-11.787M92.29 34.16h-5.43l-4.305-14.405-4.118 14.404h-5.43L65.1 11.51h6.927l3.884 13.484 3.838-13.484h5.568l3.838 13.484 3.884-13.484h6.926z"/>
            <path fill="#00C8F0" d="M125.687.072v34.08h-7.064v-13.7h-11.691v13.7h-6.968V.072h6.968v13.9h11.691V.071zM157.702.072h21.237v6.38H164.67v7.766h12.122V20.5H164.67v7.271h14.27v6.38h-21.238z"/>
            <g transform="translate(125.508)">
                <mask id="b" fill="#fff">
                    <use xlink:href="#a"/>
                </mask>
                <path fill="#00C8F0" d="M11.77 22.07l4.393-13.174L20.69 22.07H11.77zM24.8 34.152h7.35L19.98.072h-7.588L.175 34.152H7.62l2.103-5.8h12.993l2.084 5.8z" mask="url(#b)"/>
            </g>
            <g transform="translate(0 45.36)">
                <mask id="d" fill="#fff">
                    <use xlink:href="#c"/>
                </mask>
                <path fill="#004D98" d="M3.255 1.322c-1.116 0-2.02.826-2.02 2.106 0 1.267.904 2.149 2.02 2.149 1.103 0 2.06-.785 2.06-2.149 0-1.377-1.064-2.106-2.06-2.106zm2.073 4.351c-.412.73-1.316 1.13-2.18 1.13C1.448 6.803 0 5.48 0 3.443 0 1.39 1.448.095 3.148.095c.864 0 1.768.372 2.18 1.101V.234h1.196v6.43H5.328v-.991z" mask="url(#d)"/>
            </g>
            <path fill="#004D98" d="M14.987 52.025L13.3 47.3l-1.635 4.724h-.983l-2.365-6.431h1.289l1.554 4.503 1.555-4.503h1.169l1.555 4.503 1.555-4.503h1.288l-2.298 6.43zM22.812 46.682c-1.116 0-2.019.826-2.019 2.106 0 1.267.903 2.149 2.02 2.149 1.102 0 2.06-.785 2.06-2.149 0-1.377-1.064-2.106-2.06-2.106zm2.074 4.351c-.412.73-1.316 1.13-2.18 1.13-1.701 0-3.149-1.323-3.149-3.36 0-2.052 1.448-3.347 3.149-3.347.864 0 1.768.372 2.18 1.101v-.963h1.195v6.43h-1.195v-.991zM29.84 52.025h-1.209v-6.431h1.21v1.446c.319-1.13.917-1.584 1.726-1.584.44 0 .904.124 1.077.248l-.185 1.17a2.1 2.1 0 0 0-.917-.22c-1.196 0-1.701 1.322-1.701 3.03v2.34zM38.902 48.307c-.147-1.075-.89-1.722-1.887-1.722-1.023 0-1.82.647-1.967 1.722h3.854zm1.182.977h-5.036c.147 1.074.957 1.749 2.007 1.749.744 0 1.435-.358 1.78-.991.32.138.704.275 1.037.413-.532 1.129-1.661 1.708-2.857 1.708-1.767 0-3.176-1.336-3.176-3.375 0-2.037 1.409-3.332 3.176-3.332 1.767 0 3.083 1.295 3.083 3.332 0 .152 0 .358-.014.496zM43.379 52.025h-1.21v-6.431h1.21v.963c.372-.77 1.262-1.101 1.94-1.101 1.541 0 2.391 1.046 2.391 2.85v3.719h-1.209v-3.636c0-1.074-.518-1.707-1.369-1.707-.876 0-1.753.509-1.753 1.872v3.47zM54.832 48.307c-.147-1.075-.89-1.722-1.888-1.722-1.022 0-1.82.647-1.966 1.722h3.854zm1.182.977h-5.036c.147 1.074.956 1.749 2.006 1.749.745 0 1.436-.358 1.781-.991.32.138.704.275 1.036.413-.53 1.129-1.66 1.708-2.857 1.708-1.766 0-3.175-1.336-3.175-3.375 0-2.037 1.409-3.332 3.175-3.332 1.768 0 3.083 1.295 3.083 3.332 0 .152 0 .358-.013.496zM57.847 47.095c.093-.937 1.05-1.64 2.152-1.64 1.05 0 2.047.51 2.153 1.819h-1.156c-.066-.483-.492-.73-.97-.73-.452 0-.836.234-.93.578-.053.207-.053.358.013.51.12.262.412.399.731.495l.917.234c1.29.33 1.608 1.144 1.608 1.874 0 1.197-1.116 1.928-2.405 1.928-1.116 0-2.272-.744-2.312-2.066h1.102c.04.275.213.578.505.73.266.165.585.247.984.22.558-.041.93-.372.943-.84.013-.468-.372-.702-.824-.812l-.85-.207c-1.13-.317-1.767-.909-1.66-2.093M64.211 47.095c.093-.937 1.05-1.64 2.152-1.64 1.05 0 2.047.51 2.153 1.819H67.36c-.066-.483-.492-.73-.97-.73-.452 0-.836.234-.93.578-.053.207-.053.358.013.51.12.262.412.399.731.495l.917.234c1.29.33 1.608 1.144 1.608 1.874 0 1.197-1.116 1.928-2.405 1.928-1.116 0-2.272-.744-2.312-2.066h1.103c.04.275.213.578.505.73.265.165.584.247.983.22.558-.041.93-.372.943-.84.013-.468-.372-.702-.823-.812l-.851-.207c-1.13-.317-1.767-.909-1.66-2.093"/>
            <g transform="translate(69.933 50.4)">
                <mask id="f" fill="#fff">
                    <use xlink:href="#e"/>
                </mask>
                <path fill="#004D98" d="M.111 3.07c.518-.743.93-1.72.903-3.029H2.29C2.17 1.748 1.533 2.878.96 3.361l-.85-.29z" mask="url(#f)"/>
            </g>
            <path fill="#004D98" d="M81.602 46.682c-1.116 0-2.02.826-2.02 2.106 0 1.267.904 2.149 2.02 2.149 1.103 0 2.06-.785 2.06-2.149 0-1.377-1.063-2.106-2.06-2.106zm2.073 4.351c-.411.73-1.315 1.13-2.179 1.13-1.7 0-3.149-1.323-3.149-3.36 0-2.052 1.448-3.347 3.15-3.347.863 0 1.767.372 2.178 1.101v-.963h1.196v6.43h-1.196v-.991zM88.63 52.025h-1.209v-6.431h1.21v.963c.372-.77 1.262-1.101 1.94-1.101 1.54 0 2.392 1.046 2.392 2.85v3.719h-1.21v-3.636c0-1.074-.518-1.707-1.368-1.707-.877 0-1.754.509-1.754 1.872v3.47zM95.18 47.095c.093-.937 1.05-1.64 2.153-1.64 1.05 0 2.046.51 2.153 1.819H98.33c-.067-.483-.492-.73-.97-.73-.452 0-.838.234-.93.578-.054.207-.054.358.013.51.12.262.412.399.73.495l.917.234c1.29.33 1.608 1.144 1.608 1.874 0 1.197-1.116 1.928-2.405 1.928-1.116 0-2.272-.744-2.312-2.066h1.103c.04.275.212.578.505.73.266.165.584.247.983.22.558-.041.93-.372.944-.84.013-.468-.372-.702-.824-.812l-.851-.207c-1.129-.317-1.767-.909-1.66-2.093M107.63 52.025l-1.687-4.724-1.635 4.724h-.983l-2.365-6.431h1.289l1.554 4.503 1.555-4.503h1.169l1.555 4.503 1.554-4.503h1.289l-2.299 6.43zM117.262 48.307c-.146-1.075-.89-1.722-1.887-1.722-1.022 0-1.82.647-1.966 1.722h3.853zm1.183.977h-5.036c.147 1.074.956 1.749 2.006 1.749.745 0 1.436-.358 1.781-.991.32.138.704.275 1.036.413-.53 1.129-1.66 1.708-2.857 1.708-1.766 0-3.175-1.336-3.175-3.375 0-2.037 1.409-3.332 3.175-3.332 1.768 0 3.083 1.295 3.083 3.332 0 .152 0 .358-.013.496zM121.74 52.025h-1.21v-6.431h1.21v1.446c.318-1.13.916-1.584 1.727-1.584.438 0 .903.124 1.076.248l-.186 1.17a2.097 2.097 0 0 0-.917-.22c-1.196 0-1.7 1.322-1.7 3.03v2.34zM126.004 47.095c.093-.937 1.05-1.64 2.152-1.64 1.05 0 2.047.51 2.153 1.819h-1.156c-.067-.483-.491-.73-.97-.73-.451 0-.837.234-.93.578-.053.207-.053.358.014.51.119.262.412.399.73.495l.917.234c1.289.33 1.608 1.144 1.608 1.874 0 1.197-1.117 1.928-2.406 1.928-1.115 0-2.271-.744-2.311-2.066h1.103c.04.275.212.578.504.73.267.165.585.247.983.22.559-.041.93-.372.944-.84.013-.468-.372-.702-.824-.812l-.85-.207c-1.13-.317-1.767-.909-1.661-2.093"/>
            <g transform="translate(131.76 50.4)">
                <mask id="h" fill="#fff">
                    <use xlink:href="#g"/>
                </mask>
                <path fill="#004D98" d="M.076 3.07c.518-.743.93-1.72.903-3.029h1.276c-.12 1.707-.757 2.837-1.329 3.32l-.85-.29z" mask="url(#h)"/>
            </g>
            <path fill="#004D98" d="M143.395 46.682c-1.115 0-2.019.826-2.019 2.106 0 1.267.904 2.149 2.02 2.149 1.102 0 2.059-.785 2.059-2.149 0-1.377-1.063-2.106-2.06-2.106zm2.073 4.351c-.412.73-1.315 1.13-2.179 1.13-1.7 0-3.149-1.323-3.149-3.36 0-2.052 1.449-3.347 3.15-3.347.863 0 1.766.372 2.178 1.101v-.963h1.196v6.43h-1.196v-.991zM152.085 45.456c.943 0 1.807.372 2.392 1.033l-.917.798a2.04 2.04 0 0 0-1.475-.605c-1.117 0-2.087.812-2.087 2.106 0 1.295.97 2.163 2.087 2.163a2.01 2.01 0 0 0 1.475-.634l.93.799c-.585.661-1.449 1.047-2.405 1.047-1.768 0-3.283-1.336-3.283-3.375 0-2.037 1.515-3.332 3.283-3.332M159.538 45.594v1.06h-1.315v5.37h-1.21v-5.37h-1.116v-1.06h1.116V43.17h1.21v2.424z"/>
            <mask id="j" fill="#fff">
                <use xlink:href="#i"/>
            </mask>
            <path fill="#004D98" d="M161.438 52.025h1.195v-6.431h-1.195v6.43zm.598-9.613c.465 0 .836.345.836.813 0 .468-.371.813-.836.813-.452 0-.837-.345-.837-.813 0-.468.385-.813.837-.813zM170.06 48.788c0-1.294-.93-2.106-2.046-2.106-1.116 0-2.046.812-2.046 2.106 0 1.309.93 2.163 2.046 2.163 1.117 0 2.046-.854 2.046-2.163m-5.288 0c0-2.037 1.475-3.332 3.242-3.332s3.255 1.295 3.255 3.332c0 2.039-1.488 3.375-3.255 3.375s-3.242-1.336-3.242-3.375M174.617 52.025h-1.21v-6.431h1.21v.963c.372-.77 1.262-1.101 1.94-1.101 1.541 0 2.392 1.046 2.392 2.85v3.719h-1.21v-3.636c0-1.074-.518-1.707-1.367-1.707-.878 0-1.755.509-1.755 1.872v3.47z" mask="url(#j)"/>
        </g>
    </g>
</svg>
